<?xml version="1.0" standalone="no"?>
<!DOCTYPE svg PUBLIC "-//W3C//DTD SVG 20010904//EN"
 "http://www.w3.org/TR/2001/REC-SVG-20010904/DTD/svg10.dtd">
<svg version="1.0" xmlns="http://www.w3.org/2000/svg"
 width="1611.000000pt" height="430.000000pt" viewBox="0 0 1611.000000 430.000000"
 preserveAspectRatio="xMidYMid meet">

<g transform="translate(0.000000,430.000000) scale(0.100000,-0.100000)"
fill="#FFFF" stroke="none">
<path d="M0 2150 l0 -2150 8055 0 8055 0 0 2150 0 2150 -8055 0 -8055 0 0
-2150z m7170 821 c0 -186 3 -353 6 -371 8 -38 28 -48 52 -27 9 8 67 41 127 73
107 55 113 57 227 67 82 8 150 8 231 0 106 -10 119 -13 183 -51 38 -22 80 -52
93 -66 14 -14 30 -26 38 -26 7 0 13 -4 13 -10 0 -5 15 -27 33 -47 67 -76 100
-151 159 -368 15 -53 15 -444 1 -515 -23 -112 -102 -295 -154 -355 -103 -121
-245 -231 -330 -255 -70 -21 -256 -30 -376 -20 -139 12 -186 23 -233 55 -19
13 -45 26 -57 30 -20 6 -23 3 -23 -24 l0 -31 -265 0 -265 0 0 1140 0 1140 270
0 270 0 0 -339z m-5445 280 c142 -62 211 -96 280 -139 65 -41 280 -250 291
-284 3 -11 25 -49 48 -83 23 -35 48 -83 55 -106 7 -24 22 -61 33 -83 11 -21
32 -84 46 -140 23 -89 26 -121 26 -271 0 -134 -4 -184 -18 -235 -10 -36 -22
-81 -25 -100 -12 -55 -120 -268 -173 -340 -82 -112 -100 -131 -210 -219 -142
-114 -300 -196 -419 -217 -46 -8 -101 -21 -122 -29 -58 -23 -316 -21 -393 4
-33 10 -81 22 -109 26 -50 7 -124 33 -180 62 -16 9 -53 28 -82 43 -29 16 -69
41 -90 57 -21 16 -54 39 -75 51 -78 48 -202 198 -292 355 -61 106 -89 192 -84
259 3 39 6 44 33 49 40 9 396 10 462 3 51 -7 54 -9 82 -58 16 -28 73 -94 128
-148 99 -95 101 -96 199 -128 86 -28 114 -32 215 -33 124 -2 118 -4 285 74
101 47 214 177 275 316 26 59 40 213 29 328 -6 70 -13 89 -51 154 -25 42 -81
112 -129 161 -67 68 -101 94 -162 123 l-77 37 -176 0 -177 0 -80 -42 c-93 -48
-234 -175 -275 -247 -50 -87 -28 -81 -292 -81 -130 0 -246 3 -259 6 -73 20
-17 239 109 426 47 68 191 222 245 260 150 107 287 180 369 198 22 5 58 16 80
24 33 13 83 16 300 13 l260 -2 100 -44z m1585 -911 l0 -880 500 0 500 0 0
-215 0 -215 -790 0 -790 0 0 1095 0 1095 290 0 290 0 0 -880z m10550 670 l0
-210 -175 0 -175 0 0 -675 0 -675 175 0 175 0 0 -210 0 -210 -655 0 -655 0 0
210 0 210 175 0 175 0 0 675 0 675 -175 0 -175 0 0 210 0 210 655 0 655 0 0
-210z m2020 -5 l0 -215 -500 0 -500 0 0 -195 0 -195 465 0 465 0 0 -210 0
-210 -465 0 -465 0 0 -475 0 -475 -290 0 -290 0 0 1095 0 1095 790 0 790 0 0
-215z m-10215 -305 c28 -5 59 -14 70 -19 11 -5 45 -17 75 -27 90 -28 121 -48
201 -131 82 -85 88 -97 119 -222 19 -79 20 -114 20 -671 l0 -587 -61 -7 c-34
-3 -158 -6 -275 -6 l-214 0 0 65 c0 57 -2 65 -19 65 -11 0 -34 -12 -51 -27
-103 -86 -224 -128 -405 -139 -114 -7 -265 8 -328 33 -66 26 -157 94 -194 143
-18 25 -49 79 -69 120 l-36 75 4 169 c2 124 6 170 16 174 6 2 12 11 12 21 0
41 114 180 176 214 34 19 102 52 159 77 44 20 167 46 260 55 33 4 92 13 130
20 39 8 115 17 170 20 160 9 175 13 175 41 0 85 -69 145 -195 169 -152 29
-439 11 -540 -35 -46 -21 -168 -50 -211 -50 l-24 0 0 194 c0 155 3 197 14 209
8 8 39 17 68 20 29 4 74 14 99 22 26 9 106 20 180 25 163 10 605 4 674 -10z
m4150 -3 c81 -19 254 -73 263 -82 4 -3 8 -101 10 -217 l3 -211 -47 7 c-25 3
-72 19 -103 35 -172 91 -289 115 -511 109 -204 -7 -269 -44 -241 -137 9 -32
20 -43 54 -60 24 -12 52 -21 63 -21 10 -1 37 -8 59 -16 22 -8 112 -26 200 -40
149 -24 335 -76 367 -104 7 -6 35 -25 62 -42 47 -31 136 -137 136 -163 0 -7 7
-26 15 -41 11 -22 15 -63 15 -161 0 -132 0 -133 -35 -201 -65 -125 -167 -218
-314 -284 -116 -52 -165 -59 -436 -65 -358 -8 -502 8 -692 77 l-63 23 0 228 0
229 25 0 c13 0 63 -20 110 -45 209 -109 343 -147 543 -152 127 -4 148 -2 203
18 68 25 99 57 99 104 0 62 -66 94 -256 125 -66 11 -144 26 -174 34 -30 9 -89
23 -130 32 -165 37 -313 144 -383 277 -27 51 -31 70 -35 162 -3 62 0 130 8
167 41 210 313 404 600 428 148 12 511 4 585 -13z m-8409 -282 c65 -20 133
-72 172 -131 28 -41 32 -56 32 -114 0 -184 -102 -290 -280 -290 -78 0 -148 36
-195 100 -63 86 -73 141 -49 260 9 47 113 149 174 172 57 21 84 22 146 3z
m11014 -1630 l0 -45 -1100 0 -1100 0 0 45 0 45 1100 0 1100 0 0 -45z"/>
<path d="M7346 2291 c-3 -4 -19 -11 -36 -14 -17 -4 -52 -16 -79 -27 -47 -21
-49 -23 -55 -73 -3 -29 -6 -215 -6 -414 l0 -362 23 -7 c35 -12 298 -8 346 6
101 27 200 141 223 257 15 76 15 343 0 410 -11 51 -59 133 -97 166 -11 10 -42
29 -69 42 -43 22 -64 25 -147 25 -54 0 -100 -4 -103 -9z"/>
<path d="M5416 1783 c-27 -2 -58 -10 -70 -17 -11 -8 -46 -16 -77 -19 -108 -10
-201 -85 -214 -171 -15 -98 15 -153 103 -192 83 -37 201 -34 302 6 41 17 89
42 107 56 l33 25 0 160 0 159 -67 -2 c-38 -1 -90 -3 -117 -5z"/>
</g>
</svg>
