<?xml version="1.0" standalone="no"?>
<!DOCTYPE svg PUBLIC "-//W3C//DTD SVG 20010904//EN"
 "http://www.w3.org/TR/2001/REC-SVG-20010904/DTD/svg10.dtd">
<svg version="1.0" xmlns="http://www.w3.org/2000/svg"
 width="1289.000000pt" height="344.000000pt" viewBox="0 0 1289.000000 344.000000"
 preserveAspectRatio="xMidYMid meet">

<g transform="translate(0.000000,344.000000) scale(0.100000,-0.100000)"
fill="#000000" stroke="none">
<path d="M791 2608 c-1 -36 -3 -38 -45 -49 -25 -6 -47 -17 -50 -24 -3 -8 -21
-17 -40 -20 -19 -4 -40 -13 -47 -21 -6 -8 -18 -14 -25 -14 -8 0 -24 -11 -36
-25 -12 -14 -26 -25 -31 -25 -11 0 -157 -148 -157 -159 0 -5 -9 -11 -20 -14
-13 -3 -20 -14 -20 -30 0 -13 -9 -32 -20 -42 -11 -10 -20 -24 -20 -30 0 -7 -8
-23 -19 -36 -10 -13 -21 -42 -25 -64 -10 -50 -22 -65 -52 -65 -19 0 -24 -5
-24 -24 0 -33 46 -40 252 -41 l167 0 30 35 c17 19 30 39 31 43 0 17 153 157
171 157 10 0 28 9 40 21 13 13 30 19 47 17 17 -2 34 5 49 20 20 20 31 22 128
22 124 0 145 -8 146 -53 0 -29 1 -30 9 -9 13 31 55 29 76 -3 10 -16 26 -25 42
-25 38 0 172 -141 172 -181 0 -19 5 -29 15 -29 19 0 31 -48 16 -63 -8 -8 -3
-18 19 -38 29 -27 30 -31 30 -116 0 -70 -4 -95 -20 -121 -11 -18 -20 -45 -20
-61 0 -15 -9 -36 -20 -46 -11 -10 -20 -26 -20 -36 0 -9 -10 -29 -23 -44 -52
-62 -85 -95 -94 -95 -6 0 -18 -9 -28 -20 -10 -11 -24 -20 -31 -20 -7 0 -25
-11 -40 -25 -37 -34 -114 -33 -114 1 0 8 -7 14 -15 14 -10 0 -15 -10 -15 -29
0 -39 -13 -45 -83 -44 -67 2 -87 14 -87 51 l0 26 -20 -22 c-30 -31 -90 -30
-126 3 -15 14 -35 25 -45 25 -10 0 -23 9 -29 20 -6 11 -15 20 -21 20 -14 0
-69 55 -69 69 0 6 -9 15 -20 21 -11 6 -20 17 -20 25 0 8 -11 26 -25 41 -14 15
-25 31 -25 35 0 13 -347 11 -355 -1 -3 -5 -22 -10 -41 -10 -27 0 -34 -4 -34
-20 0 -14 7 -20 24 -20 31 0 44 -17 52 -70 4 -23 15 -51 26 -62 10 -10 18 -27
18 -38 0 -11 7 -23 15 -26 8 -3 17 -15 21 -26 11 -36 54 -91 119 -154 36 -34
65 -67 65 -73 0 -6 4 -11 9 -11 14 0 50 -17 96 -45 22 -13 52 -29 68 -36 15
-6 32 -20 38 -30 7 -15 21 -19 60 -19 66 0 89 -13 89 -50 0 -35 10 -38 28 -10
11 19 23 20 184 20 163 0 173 -1 195 -22 l23 -21 0 26 c0 44 25 59 92 55 50
-3 59 0 64 15 3 11 20 26 37 34 48 22 91 47 108 61 7 7 27 23 42 37 15 14 34
25 42 25 8 0 20 10 26 23 19 37 50 66 79 72 23 5 26 10 22 32 -3 16 1 30 10
37 8 6 20 21 27 34 8 15 21 22 44 23 18 1 24 3 15 6 -25 6 -23 58 2 90 11 14
20 34 20 45 0 39 19 58 58 58 l37 0 -27 23 -26 22 1 213 c2 209 3 214 25 232
29 24 28 27 -7 22 -23 -3 -33 1 -46 21 -9 14 -15 38 -13 54 2 20 -3 31 -17 38
-12 7 -21 23 -23 43 -2 17 -11 37 -20 44 -19 14 -72 89 -72 102 0 13 -138 144
-169 161 -17 8 -31 20 -31 25 0 6 -6 10 -14 10 -8 0 -21 8 -28 18 -7 11 -30
22 -51 26 -32 6 -39 12 -44 37 -4 21 -9 27 -16 20 -19 -19 -65 -13 -77 9 -10
19 -21 20 -281 20 l-270 0 -9 23 c-8 19 -9 17 -9 -15z"/>
<path d="M5300 1735 l0 -905 210 0 210 0 0 25 c0 31 10 31 63 1 23 -13 67 -30
97 -37 30 -7 59 -16 65 -21 12 -11 241 -10 263 1 9 4 42 16 72 26 30 9 79 33
109 53 59 40 156 142 174 182 7 14 17 30 23 35 6 6 19 33 28 60 10 28 24 64
32 82 40 89 35 477 -7 568 -5 11 -18 47 -29 79 -27 79 -141 215 -195 232 -11
4 -22 10 -25 15 -13 20 -130 39 -235 39 -104 0 -221 -19 -235 -39 -3 -4 -26
-16 -52 -27 -27 -10 -48 -22 -48 -25 0 -6 -75 -49 -85 -49 -3 0 -5 137 -5 305
l0 305 -215 0 -215 0 0 -905z m781 93 c44 -15 89 -61 119 -123 24 -47 25 -60
25 -215 l0 -165 -33 -67 c-38 -77 -100 -135 -159 -149 -44 -10 -211 -12 -265
-3 l-38 7 0 333 0 333 33 16 c17 10 50 23 72 31 51 16 201 18 246 2z"/>
<path d="M2190 1700 l0 -870 630 0 630 0 0 165 0 165 -402 2 -403 3 -3 703 -2
702 -225 0 -225 0 0 -870z"/>
<path d="M10050 2410 l0 -160 140 0 140 0 0 -550 0 -550 -140 0 -140 0 0 -160
0 -160 515 0 515 0 0 160 0 160 -140 0 -140 0 0 550 0 550 140 0 140 0 0 160
0 160 -515 0 -515 0 0 -160z"/>
<path d="M11440 1700 l0 -870 230 0 230 0 0 375 0 375 370 0 370 0 0 165 0
165 -370 0 -370 0 0 165 0 165 400 0 400 0 0 165 0 165 -630 0 -630 0 0 -870z"/>
<path d="M4000 2164 c-14 -2 -65 -9 -115 -15 -49 -6 -94 -15 -100 -19 -5 -5
-23 -10 -40 -12 l-30 -3 -3 -162 -2 -163 39 0 c22 0 42 4 46 9 3 5 31 17 63
26 31 8 64 19 73 24 39 22 144 33 271 29 119 -4 139 -7 190 -31 60 -29 98 -81
98 -132 0 -23 -3 -25 -54 -25 -83 0 -320 -21 -331 -30 -5 -4 -33 -10 -61 -14
-63 -8 -167 -34 -174 -44 -3 -4 -25 -14 -49 -22 -24 -8 -45 -20 -48 -27 -3 -7
-10 -13 -17 -13 -14 0 -85 -74 -105 -110 -45 -78 -46 -83 -46 -220 0 -122 2
-139 23 -180 36 -70 74 -122 103 -139 14 -9 41 -26 60 -39 19 -12 53 -27 77
-33 23 -7 45 -15 48 -20 7 -13 251 -11 259 1 3 6 14 10 23 10 27 0 152 42 152
51 0 5 6 9 13 9 6 0 35 18 62 40 28 22 53 40 58 40 4 0 7 -27 7 -60 l0 -60
216 0 215 0 -3 503 c-2 358 -6 508 -15 522 -6 11 -19 41 -28 67 -12 35 -35 64
-87 113 -39 36 -77 65 -85 65 -8 0 -33 9 -56 20 -72 35 -203 50 -422 49 -110
-1 -211 -3 -225 -5z m488 -853 c3 -140 2 -143 -78 -190 -42 -24 -53 -26 -170
-26 -114 0 -128 2 -157 23 -60 43 -68 158 -14 215 48 52 83 66 187 78 54 6
106 15 114 20 8 4 38 7 65 6 l50 -2 3 -124z"/>
<path d="M7315 2154 c-43 -8 -82 -18 -85 -22 -3 -4 -25 -14 -49 -22 -91 -29
-240 -166 -262 -240 -29 -102 -18 -265 22 -326 31 -47 107 -120 147 -140 20
-10 39 -22 43 -26 3 -4 36 -15 75 -25 38 -9 71 -20 74 -24 3 -3 63 -14 134
-24 71 -9 137 -21 145 -26 9 -5 35 -13 58 -19 75 -19 98 -88 43 -134 -40 -33
-92 -40 -258 -33 -130 4 -167 11 -239 43 -17 8 -36 14 -42 14 -15 0 -159 79
-167 91 -3 5 -16 9 -30 9 l-24 0 0 -180 c0 -163 2 -181 18 -187 9 -3 35 -14
57 -23 22 -10 87 -26 145 -35 58 -9 113 -21 122 -26 22 -11 371 -12 384 -1 5
5 45 14 89 21 50 8 107 26 152 48 86 42 197 139 215 188 6 19 15 35 19 35 4 0
13 23 19 51 15 63 8 206 -12 246 -39 78 -92 143 -114 143 -7 0 -17 6 -21 13
-4 7 -28 21 -53 31 -25 10 -58 24 -75 31 -16 7 -79 21 -140 30 -60 9 -117 19
-125 23 -8 3 -53 13 -100 23 -47 10 -86 23 -88 29 -2 5 -10 10 -17 10 -21 0
-37 36 -33 73 3 28 10 36 58 60 50 25 63 27 172 27 109 0 209 -13 233 -29 6
-4 29 -13 52 -19 23 -7 67 -26 98 -42 32 -17 70 -30 86 -30 l29 0 -2 167 -3
167 -50 12 c-27 7 -59 18 -70 23 -75 39 -468 54 -630 25z"/>
<path d="M1142 1948 c-3 -27 -40 -41 -88 -34 -37 5 -45 2 -54 -14 -6 -11 -17
-20 -24 -20 -16 0 -52 -39 -60 -67 -4 -12 -15 -24 -24 -27 -25 -8 -18 -125 9
-144 10 -7 19 -19 19 -26 0 -20 41 -52 83 -66 37 -11 57 -45 42 -69 -4 -7 7
-11 28 -11 31 0 34 2 29 25 -6 32 11 51 51 59 30 6 55 28 91 80 8 12 24 19 45
18 24 0 31 4 31 17 0 10 -7 24 -15 31 -8 7 -15 25 -15 41 0 22 -7 32 -25 41
-14 6 -25 17 -25 23 0 15 -40 59 -68 74 -14 7 -22 23 -25 49 -2 20 -4 29 -5
20z"/>
<path d="M8184 656 c-3 -8 -4 -25 -2 -38 l3 -23 873 -3 872 -2 0 40 0 40 -870
0 c-745 0 -871 -2 -876 -14z"/>
</g>
</svg>
